<svg xmlns="http://www.w3.org/2000/svg" width="24" height="24" fill="none" viewBox="0 0 24 24"><g clip-path="url(#clip0_1046_3571)"><path fill="#ffda44" d="M16.174.747A12 12 0 0 0 12 0a12 12 0 0 0-4.174.747L6.782 12l1.044 11.254c1.3.482 2.706.746 4.174.746 1.467 0 2.874-.264 4.174-.746L17.217 12z"/><path fill="#d80027" d="M24 12c0-5.16-3.257-9.56-7.826-11.255v22.507C20.744 21.557 24 17.159 24 11.999"/><path fill="#000" d="M0 12c0 5.16 3.257 9.558 7.826 11.254V.746C3.256 2.442 0 6.84 0 12"/></g><defs><clipPath id="clip0_1046_3571"><path fill="#fff" d="M0 0h24v24H0z"/></clipPath></defs></svg>
