<svg xmlns="http://www.w3.org/2000/svg" width="24" height="24" fill="none" viewBox="0 0 24 24"><g clip-path="url(#clip0_1046_3567)"><path fill="#f0f0f0" d="M12 24c6.627 0 12-5.373 12-12S18.627 0 12 0 0 5.373 0 12s5.373 12 12 12"/><path fill="#d80027" d="M12-.001c-2.409 0-4.65.71-6.53 1.931L8.556 4l-3.86 2 3.86 2-3.86 2 3.86 2-3.86 2 3.86 2-3.86 2 3.86 2-3.086 2.069a11.94 11.94 0 0 0 6.53 1.93c6.627 0 12-5.373 12-12s-5.373-12-12-12"/></g><defs><clipPath id="clip0_1046_3567"><path fill="#fff" d="M0 0h24v24H0z"/></clipPath></defs></svg>
