<svg xmlns="http://www.w3.org/2000/svg" width="24" height="24" fill="none" viewBox="0 0 24 24"><g clip-path="url(#clip0_1046_3576)"><path fill="#ffda44" d="M24 12a12 12 0 0 0-.746-4.173L12 7.305.746 7.827A12 12 0 0 0 0 12c0 1.468.264 2.874.746 4.173L12 16.696l11.254-.521c.482-1.3.746-2.706.746-4.174"/><path fill="#6da544" d="M12 24c5.16 0 9.558-3.257 11.253-7.826H.746C2.442 20.744 6.84 24 12 24"/><path fill="#d80027" d="M.746 7.826h22.507C21.558 3.256 17.16 0 12 0S2.442 3.257.746 7.826"/></g><defs><clipPath id="clip0_1046_3576"><path fill="#fff" d="M0 0h24v24H0z"/></clipPath></defs></svg>
