<svg xmlns="http://www.w3.org/2000/svg" width="24" height="24" fill="none" viewBox="0 0 24 24"><g clip-path="url(#clip0_1046_3566)"><path fill="#ffda44" d="M12 24c6.627 0 12-5.373 12-12S18.627 0 12 0 0 5.373 0 12s5.373 12 12 12"/><path fill="#338af3" d="M7.306 7.825h15.95C21.56 3.255 17.16 0 12.001 0a11.96 11.96 0 0 0-8.485 3.515zm-.001 8.348h15.95c-1.696 4.57-6.095 7.826-11.254 7.826a11.96 11.96 0 0 1-8.485-3.515z"/><path fill="#000" d="M3.515 3.514c-4.687 4.687-4.687 12.285 0 16.97L12 12z"/></g><defs><clipPath id="clip0_1046_3566"><path fill="#fff" d="M0 0h24v24H0z"/></clipPath></defs></svg>
