<svg xmlns="http://www.w3.org/2000/svg" width="24" height="24" fill="none" viewBox="0 0 24 24"><g clip-path="url(#clip0_1046_3579)"><path fill="#f0f0f0" d="M.567 8.348A12 12 0 0 0 0 12c0 1.274.199 2.5.567 3.652L12 16.174l11.433-.522C23.801 14.5 24 13.273 24 12s-.2-2.5-.567-3.652L12 7.826z"/><path fill="#000" d="M24 12q-.001-1.069-.181-2.086H.18a12 12 0 0 0 0 4.173h23.64a12 12 0 0 0 .18-2.086"/><path fill="#338af3" d="M12 24c5.354 0 9.888-3.507 11.433-8.348H.566C2.112 20.493 6.646 24 12 24m0-24C6.646 0 2.112 3.505.566 8.346h22.867C21.888 3.506 17.353 0 12 0"/></g><defs><clipPath id="clip0_1046_3579"><path fill="#fff" d="M0 0h24v24H0z"/></clipPath></defs></svg>
