<svg xmlns="http://www.w3.org/2000/svg" width="24" height="24" fill="none" viewBox="0 0 24 24"><g clip-path="url(#clip0_1046_3591)"><path fill="#f0f0f0" d="M12 24c6.627 0 12-5.373 12-12S18.627 0 12 0 0 5.373 0 12s5.373 12 12 12"/><path fill="#0052b4" d="M22.54 6.26A12.03 12.03 0 0 0 15.13.412l-.522 5.848zm-21.081 0h7.932L8.87.413a12.03 12.03 0 0 0-7.41 5.849"/><path fill="#6da544" d="M14.608 12.002v5.739h7.933A11.96 11.96 0 0 0 24 12zM9.391 12H0c0 2.08.529 4.035 1.46 5.74h7.93z"/><path fill="#ffda44" d="M1.459 17.74a12.03 12.03 0 0 0 7.41 5.848l.522-5.115zm13.671 5.848a12.03 12.03 0 0 0 7.41-5.848l-7.932.734z"/><path fill="#ffda44" d="m14.608 18.474 7.933-.734h-7.933zm-5.217-.734H1.46l7.932.733z"/><path fill="#d80027" d="M12 0a12 12 0 0 0-3.13.414v23.173A12 12 0 0 0 12 24c1.084 0 2.133-.144 3.131-.413V.414A12 12 0 0 0 12.001 0"/><path fill="#ffda44" d="m6.454 2.61.324.996h1.048l-.848.615.324.997-.848-.616-.847.616.324-.997-.848-.615h1.048z"/></g><defs><clipPath id="clip0_1046_3591"><path fill="#fff" d="M0 0h24v24H0z"/></clipPath></defs></svg>
