<svg xmlns="http://www.w3.org/2000/svg" width="24" height="24" fill="none" viewBox="0 0 24 24"><g clip-path="url(#clip0_1046_3607)"><path fill="#f0f0f0" d="M12 24c6.627 0 12-5.373 12-12S18.627 0 12 0 0 5.373 0 12s5.373 12 12 12"/><path fill="#d80027" d="M9.392 10.435h14.507C23.132 4.547 18.097 0 12 0c-.896 0-1.768.1-2.608.285zm-3.132.001V1.46a12 12 0 0 0-6.158 8.976zm0 3.13H.103A12 12 0 0 0 6.26 22.54zm3.132 0v10.15c.84.185 1.712.284 2.608.284 6.097 0 11.132-4.547 11.899-10.434z"/></g><defs><clipPath id="clip0_1046_3607"><path fill="#fff" d="M0 0h24v24H0z"/></clipPath></defs></svg>
