<svg xmlns="http://www.w3.org/2000/svg" width="24" height="24" fill="none" viewBox="0 0 24 24"><g clip-path="url(#clip0_1046_3609)"><path fill="#f0f0f0" d="M12 24c6.627 0 12-5.373 12-12S18.627 0 12 0 0 5.373 0 12s5.373 12 12 12"/><path fill="#496e2d" d="M14.349 23.77a12.01 12.01 0 0 0 9.421-9.423h-9.42zM.23 14.347a12.01 12.01 0 0 0 9.422 9.422v-9.422zm23.54-4.695A12.01 12.01 0 0 0 14.35.23v9.422zM9.652.23A12.01 12.01 0 0 0 .23 9.652h9.422z"/><path fill="#ffda44" d="M11.218 14.348H9.651v9.422q.767.152 1.566.204zm0-4.695V.027q-.799.052-1.566.204v9.422z"/><path fill="#000" d="M12.782.027a12 12 0 0 0-1.565 0v9.626h1.565zm-1.565 23.947a12 12 0 0 0 1.565 0v-9.626h-1.565z"/><path fill="#ffda44" d="M9.652 11.218V9.653H.231q-.153.766-.205 1.565zm4.697 0h9.626a12 12 0 0 0-.204-1.565h-9.422z"/><path fill="#000" d="M14.348 12.783h9.626a12 12 0 0 0 0-1.565h-9.626zM.026 11.218a12 12 0 0 0 0 1.565h9.626v-1.565z"/><path fill="#d80027" d="M12 17.739A5.74 5.74 0 1 0 12 6.26a5.74 5.74 0 0 0 0 11.478"/><path fill="#496e2d" d="M13.308 12.64c-.427-.853-.982-1.718-.982-1.718s.013-.394.013-.629a.64.64 0 0 0-1.277-.055.505.505 0 0 0-.2.951.73.73 0 0 1 .431-.401q.048.04.102.069l.082.039s-.304.857-.304 1.318c0 1.295.854 1.694.854 1.694v.014l-.427.426h.854v-.853l.427.427c.003-.008.808-.518.426-1.281M12 7.304l.194.598h.628l-.508.37.194.598L12 8.5l-.509.37.194-.598-.508-.37h.628zm-2.76.898.509.37.508-.37-.194.598.509.37h-.63l-.193.597-.195-.598h-.628l.508-.37zM7.534 10.55h.629l.194-.599.194.598h.629l-.509.37.195.598-.509-.37-.509.37.195-.598zm0 2.901.509-.37-.195-.597.509.37.509-.37-.195.598.509.37h-.629l-.194.597-.194-.598zm1.706 2.348.194-.598-.508-.37h.628l.195-.597.194.598h.629l-.509.37.194.597-.508-.37zm2.76.897-.195-.597h-.628l.508-.37-.194-.598.509.37.508-.37-.194.598.508.37h-.628zm2.76-.897-.508-.37-.509.37.194-.598-.508-.37h.628l.195-.597.194.598h.629l-.51.37zm1.706-2.348h-.629l-.194.598-.194-.598h-.629l.509-.37-.194-.597.508.37.509-.37-.194.598zm0-2.901-.508.369.194.597-.509-.37-.508.37.194-.597-.509-.37h.629l.194-.598.194.598zM14.76 8.202l-.194.598.508.37h-.628l-.194.597-.195-.598h-.628l.508-.37-.194-.597.509.37z"/></g><defs><clipPath id="clip0_1046_3609"><path fill="#fff" d="M0 0h24v24H0z"/></clipPath></defs></svg>
