<svg xmlns="http://www.w3.org/2000/svg" width="24" height="24" fill="none" viewBox="0 0 24 24"><g clip-path="url(#clip0_1046_3617)"><path fill="#000" d="M0 12c0 1.467.264 2.873.746 4.173L12 16.695l11.254-.522c.482-1.3.746-2.706.746-4.173s-.264-2.874-.746-4.174L12 7.304.746 7.826A12 12 0 0 0 0 12"/><path fill="#0052b4" d="M12 0C6.84 0 2.442 3.256.746 7.826h22.507C21.558 3.256 17.16 0 12 0"/><path fill="#f0f0f0" d="M23.253 16.174H.746C2.442 20.744 6.84 24 12 24s9.558-3.256 11.253-7.826"/></g><defs><clipPath id="clip0_1046_3617"><path fill="#fff" d="M0 0h24v24H0z"/></clipPath></defs></svg>
