<svg xmlns="http://www.w3.org/2000/svg" width="24" height="24" fill="none" viewBox="0 0 24 24"><g clip-path="url(#clip0_1046_3722)"><path fill="#f0f0f0" d="M12 24c6.627 0 12-5.373 12-12S18.627 0 12 0 0 5.373 0 12s5.373 12 12 12"/><path fill="#0052b4" d="M2.48 4.693A12 12 0 0 0 .413 8.868h6.243zm21.106 4.176a12 12 0 0 0-2.067-4.176L17.344 8.87zM.413 15.13a12 12 0 0 0 2.067 4.176l4.176-4.176zM19.305 2.48A12 12 0 0 0 15.13.412v6.243zM4.693 21.518a12 12 0 0 0 4.176 2.067v-6.243zM8.869.412A12 12 0 0 0 4.693 2.48L8.87 6.655zm6.261 23.173a12 12 0 0 0 4.175-2.067l-4.175-4.176zm2.214-8.455 4.175 4.176a12 12 0 0 0 2.067-4.176z"/><path fill="#d80027" d="M23.898 10.435H13.565V.102a12 12 0 0 0-3.13 0v10.333H.102a12 12 0 0 0 0 3.13h10.333v10.333a12 12 0 0 0 3.13 0V13.565h10.333a12 12 0 0 0 0-3.13"/><path fill="#d80027" d="m15.13 15.131 5.356 5.355q.368-.37.705-.77l-4.584-4.585zm-6.26 0-5.355 5.355q.37.369.77.705l4.585-4.584zm0-6.261L3.515 3.514a12 12 0 0 0-.705.77L7.394 8.87zm6.26 0 5.356-5.355a12 12 0 0 0-.77-.705L15.13 7.394z"/></g><defs><clipPath id="clip0_1046_3722"><path fill="#fff" d="M0 0h24v24H0z"/></clipPath></defs></svg>
