<svg xmlns="http://www.w3.org/2000/svg" width="24" height="24" fill="none" viewBox="0 0 24 24"><g clip-path="url(#clip0_1046_3630)"><path fill="#ffda44" d="M12 24c6.627 0 12-5.373 12-12S18.627 0 12 0 0 5.373 0 12s5.373 12 12 12"/><path fill="#a2001d" d="M5.236 2.087A11.94 11.94 0 0 1 12 0c2.509 0 4.837.77 6.763 2.087L12 2.609z"/><path fill="#0052b4" d="m12 12-.765-.766-.204.364z"/><path fill="#496e2d" d="M3.515 3.515c-4.687 4.686-4.687 12.284 0 16.97L12 12zm16.97.001c4.687 4.686 4.687 12.284 0 16.97L12 12.002z"/><path fill="#a2001d" d="M12 16.174a4.174 4.174 0 1 0 0-8.348 4.174 4.174 0 0 0 0 8.348"/><path fill="#ffda44" d="m12 7.826.935 2.88h3.028l-2.45 1.78.936 2.88-2.45-1.78-2.449 1.78.936-2.88-2.45-1.78h3.028z"/><path fill="#a2001d" d="M12.004 0h-.008a11.96 11.96 0 0 0-8.48 3.514h16.969A11.96 11.96 0 0 0 12.005 0M3.516 20.486A11.96 11.96 0 0 0 12 24c3.314 0 6.313-1.343 8.485-3.514z"/><path fill="#ffda44" d="m12 1.304.195.598h.628l-.508.37.194.597-.508-.37-.509.37.194-.597-.508-.37h.628zm-2.91 0 .195.598h.628l-.508.37.194.597-.509-.37-.508.37.194-.597-.508-.37h.628zm5.82 0 .194.598h.629l-.509.37.194.597-.508-.37-.509.37.195-.597-.51-.37h.63zM12 21.13l.195.598h.628l-.508.37.194.597-.508-.37-.509.37.194-.598-.508-.37h.628zm-2.91 0 .195.598h.628l-.508.37.194.597-.509-.37-.508.37.194-.598-.508-.37h.628zm5.82 0 .194.598h.629l-.509.37.194.597-.508-.37-.509.37.195-.598-.51-.37h.63zM3.657 11.802a1.043 1.043 0 0 1-1.764 1.116c-.558-.881-.234-2.321-.234-2.321s1.44.323 1.998 1.205"/><path fill="#a2001d" d="M3.054 13.323a.522.522 0 1 0 0-1.044.522.522 0 0 0 0 1.043"/></g><defs><clipPath id="clip0_1046_3630"><path fill="#fff" d="M0 0h24v24H0z"/></clipPath></defs></svg>
