<svg xmlns="http://www.w3.org/2000/svg" width="24" height="24" fill="none" viewBox="0 0 24 24"><g clip-path="url(#clip0_1046_3727)"><path fill="#f0f0f0" d="M12 24c6.627 0 12-5.373 12-12S18.627 0 12 0 0 5.373 0 12s5.373 12 12 12"/><path fill="#d80027" d="M23.898 10.435H13.565V.102a12 12 0 0 0-3.13 0v10.333H.102a12 12 0 0 0 0 3.13h10.333v10.333a12 12 0 0 0 3.13 0V13.565h10.333a12 12 0 0 0 0-3.13"/><path fill="#d80027" d="M7.304 5.74V4.175H5.74V5.74H4.174v1.565h1.565V8.87h1.565V7.305H8.87V5.74zm10.957 0V4.175h-1.565V5.74h-1.565v1.565h1.565V8.87h1.565V7.305h1.566V5.74zM7.304 16.697v-1.565H5.74v1.565H4.174v1.565h1.565v1.565h1.565v-1.565H8.87v-1.565zm10.957 0v-1.565h-1.565v1.565h-1.565v1.565h1.565v1.565h1.565v-1.565h1.566v-1.565z"/></g><defs><clipPath id="clip0_1046_3727"><path fill="#fff" d="M0 0h24v24H0z"/></clipPath></defs></svg>
