<svg xmlns="http://www.w3.org/2000/svg" width="24" height="24" fill="none" viewBox="0 0 24 24"><g clip-path="url(#clip0_1046_3642)"><path fill="#f0f0f0" d="M12 24c6.627 0 12-5.373 12-12S18.627 0 12 0 0 5.373 0 12s5.373 12 12 12"/><path fill="#ff9811" d="M12-.001A12 12 0 0 0 1.19 6.782h21.62A12 12 0 0 0 12-.001"/><path fill="#6da544" d="M12 24a12 12 0 0 0 10.809-6.783H1.19A12 12 0 0 0 12 24"/><path fill="#0052b4" d="M12 16.173a4.174 4.174 0 1 0 0-8.348 4.174 4.174 0 0 0 0 8.348"/><path fill="#f0f0f0" d="M12 14.608a2.609 2.609 0 1 0 0-5.218 2.609 2.609 0 0 0 0 5.218"/><path fill="#0052b4" d="m12 8.78.806 1.826 1.983-.216L13.61 12l1.179 1.61-1.983-.216L12 15.219l-.805-1.825-1.983.216L10.39 12l-1.178-1.61 1.983.216z"/></g><defs><clipPath id="clip0_1046_3642"><path fill="#fff" d="M0 0h24v24H0z"/></clipPath></defs></svg>
