<svg xmlns="http://www.w3.org/2000/svg" width="24" height="24" fill="none" viewBox="0 0 24 24"><g clip-path="url(#clip0_1046_3645)"><path fill="#f0f0f0" d="M12 24c6.627 0 12-5.373 12-12S18.627 0 12 0 0 5.373 0 12s5.373 12 12 12"/><path fill="#a2001d" d="M12 0C6.84 0 2.442 3.255.746 7.825h22.507C21.558 3.255 17.16-.002 12-.002"/><path fill="#000" d="M12 24c5.16 0 9.558-3.256 11.253-7.826H.746C2.442 20.744 6.84 24.001 12 24.001"/><path fill="#496e2d" d="M9.13 11.219H6.817c.116-.45.524-.783 1.01-.783V8.87a2.61 2.61 0 0 0-2.61 2.608v1.305h3.914a.26.26 0 0 1 .26.26v.522H4.174v1.566h6.783v-2.087c0-1.007-.82-1.826-1.827-1.826m3.914 2.348V8.87h-1.565v6.26h2.608v-1.564zm5.216 0V8.87h-1.565v4.696h-.521V12h-1.566v3.13h4.696v-1.565z"/></g><defs><clipPath id="clip0_1046_3645"><path fill="#fff" d="M0 0h24v24H0z"/></clipPath></defs></svg>
