<svg xmlns="http://www.w3.org/2000/svg" width="24" height="24" fill="none" viewBox="0 0 24 24"><g clip-path="url(#clip0_1046_3641)"><path fill="#f0f0f0" d="M12 24c6.627 0 12-5.373 12-12S18.627 0 12 0 0 5.373 0 12s5.373 12 12 12"/><path fill="#0052b4" d="M.413 15.13a12 12 0 0 0 4.282 6.39v-6.39zm10.543 8.824q.516.045 1.043.046c5.545 0 10.21-3.76 11.587-8.87h-12.63zM23.586 8.87C22.21 3.76 17.544 0 12 0q-.528 0-1.044.045V8.87zM4.695 2.48A12 12 0 0 0 .413 8.87h4.282z"/><path fill="#d80027" d="M23.898 10.435H9.391V.285C8.282.533 7.231.93 6.261 1.46v8.976H.1a12 12 0 0 0 0 3.13h6.16v8.976c.97.53 2.021.928 3.13 1.174v-10.15h14.507a12 12 0 0 0 0-3.13"/></g><defs><clipPath id="clip0_1046_3641"><path fill="#fff" d="M0 0h24v24H0z"/></clipPath></defs></svg>
