<svg xmlns="http://www.w3.org/2000/svg" width="24" height="24" fill="none" viewBox="0 0 24 24"><g clip-path="url(#clip0_1046_3652)"><path fill="#d80027" d="M12 24c6.627 0 12-5.373 12-12S18.627 0 12 0 0 5.373 0 12s5.373 12 12 12"/><path fill="#ffda44" d="m17.868 12-2.398 1.128 1.277 2.322-2.604-.498-.33 2.63L12 15.649l-1.813 1.935-.33-2.63-2.604.497 1.277-2.322L6.13 12l2.398-1.128L7.252 8.55l2.604.498.33-2.63 1.813 1.934 1.814-1.935.33 2.63 2.604-.497-1.277 2.322z"/><path fill="#d80027" d="M12 15.651a3.652 3.652 0 1 0 0-7.304 3.652 3.652 0 0 0 0 7.304"/><path fill="#ffda44" d="M10.175 12a3 3 0 0 0-.26.013c.002.506.185.97.488 1.329a3.7 3.7 0 0 1 .705-1.168 2.6 2.6 0 0 0-.933-.174m1.124 1.967a2.08 2.08 0 0 0 1.404 0A2.6 2.6 0 0 0 12 12.749a2.6 2.6 0 0 0-.702 1.218m2.51-3.01a2.086 2.086 0 0 0-3.615 0 3.6 3.6 0 0 1 1.808.491 3.63 3.63 0 0 1 1.807-.49m-.914 1.216c.303.338.544.734.705 1.168.302-.36.485-.822.489-1.328a2.6 2.6 0 0 0-1.194.16"/></g><defs><clipPath id="clip0_1046_3652"><path fill="#fff" d="M0 0h24v24H0z"/></clipPath></defs></svg>
