<svg xmlns="http://www.w3.org/2000/svg" width="24" height="24" fill="none" viewBox="0 0 24 24"><g clip-path="url(#clip0_1046_3587)"><path fill="#d80027" d="M0 12c0 2.08.529 4.035 1.46 5.74L12 18.784l10.54-1.044A11.9 11.9 0 0 0 24 12c0-2.078-.529-4.033-1.46-5.738L12 5.218 1.46 6.262A11.95 11.95 0 0 0 0 12"/><path fill="#0052b4" d="M1.459 6.261h21.082A12 12 0 0 0 12 .001 11.99 11.99 0 0 0 1.459 6.26M12 24c4.548 0 8.506-2.53 10.54-6.26H1.46A12 12 0 0 0 11.999 24"/><path fill="#f0f0f0" d="M16.174 14.347v-1.565h-1.043v-2.087l-1.043-1.043-1.044 1.043V8.608l-1.043-1.043-1.044 1.043v2.087L9.914 9.652 8.87 10.695v2.087H7.827v1.565H6.783v1.566h10.435v-1.566z"/></g><defs><clipPath id="clip0_1046_3587"><path fill="#fff" d="M0 0h24v24H0z"/></clipPath></defs></svg>
