<svg xmlns="http://www.w3.org/2000/svg" width="24" height="24" fill="none"><g clip-path="url(#a)"><path fill="#d80027" d="M0 12a12 12 0 0 1 24 0"/><path fill="#ffda44" d="m16.2 11.2-1.8.8H9.5l-1.7-.8 1.7-.8-.9-1.7 1.9.4.2-2L12 8.7l1.3-1.4.2 1.9 1.9-.4-1 1.7 1.8.8zM15.1 4h-2.3c0-.6-.6-1-1-.8-.4.1-.6.4-.6.7H9c0 .4.4.8.8.8 0 .3.1.5.3.7.2 0 .5 0 .5.4.1.3.5.5.8.5H13c.4-.1.7-.5.7-.8.4 0 .8-.4.7-.8.5 0 .8-.4.8-.8Z"/><path fill="#f0f0f0" d="M24 12a12 12 0 0 1-24 0z" style="display:inline"/><path fill="#0052b4" d="M12 24c3.6 0 7-1.6 9.3-4.4-.4-.4-1-.9-1.6-.7-.7.2-1 1-1.9.9-.7-.1-1-1-1.9-1-.8 0-1.1 1-1.9 1s-1.2-1-2-1-1.2 1-2 1-1.2-1-2-1-1.2 1-2 1-1.2-1-2-1c-.4 0-1.4.6-1.1 1A12 12 0 0 0 12 24m10-10.5c-1 0-1-.9-2-.9s-1 1-2 1-1-1-2-1-1 1-2 1-1-1-2-1-1 1-2 1-1-1-2-1-1 1-2 1-1-1-2-1-1 1-2 1-1-1-2-1l.2 1.6c.8.1.9 1 1.8 1 1 0 1-1 2-1s1 1 2 1 1-1 2-1 1 1 2 1 1-1 2-1 1 1 2 1 1-1 2-1 1 1 2 1 1-1 2-1 1 1 2 1 1-.9 1.8-1l.2-1.6c-1 0-1 1-2 1Zm-2 2.2c-1 0-1 1-2 1s-1-1-2-1-1 1-2 1-1-1-2-1-1 1-2 1-1-1-2-1-1 1-2 1-1-1-2-1-1 1-2 1c-.7 0-1-.5-1.3-.8.2.8.6 1.6 1 2.3H2c1 0 1-.9 2-.9s1 1 2 1 1-1 2-1 1 1 2 1 1-1 2-1 1 1 2 1 1-1 2-1 1 1 2 1 1-1 2-1 1 1 2 1h.3c.4-.8.8-1.6 1-2.4-.4.3-.6.8-1.3.8-1 0-1-1-2-1"/><path fill="#f0f0f0" d="M24 11c-1 0-1 1-2 1s-1-1-2-1-1 1-2 1-1-1-2-1-1 1-2 1-1-1-2-1-1 1-2 1-1-1-2-1-1 1-2 1-1-1-2-1-1 1-2 1-1-1-2-1a12 12 0 0 0 0 1.7c1 0 1 .9 2 .9s1-1 2-1 1 1 2 1 1-1 2-1 1 1 2 1 1-1 2-1 1 1 2 1 1-1 2-1 1 1 2 1 1-1 2-1 1 1 2 1 1-1 2-1a12 12 0 0 0 0-1.5Z"/></g><defs><clipPath id="a"><path fill="#fff" d="M0 0h24v24H0z"/></clipPath></defs></svg>
