<svg xmlns="http://www.w3.org/2000/svg" width="24" height="24" fill="none" viewBox="0 0 24 24"><g clip-path="url(#clip0_1046_3655)"><path fill="#f0f0f0" d="M12 24c6.627 0 12-5.373 12-12S18.627 0 12 0 0 5.373 0 12s5.373 12 12 12"/><path fill="#d80027" d="M12 0A12 12 0 0 0 1.19 6.781h21.62A12 12 0 0 0 12-.002M12 24a12 12 0 0 0 10.809-6.783H1.19A12 12 0 0 0 12 23.999"/><path fill="#6da544" d="m15.131 14.086-3.13-5.739-3.13 5.74h2.347v1.564h1.565v-1.565z"/></g><defs><clipPath id="clip0_1046_3655"><path fill="#fff" d="M0 0h24v24H0z"/></clipPath></defs></svg>
