<svg xmlns="http://www.w3.org/2000/svg" width="24" height="24" fill="none" viewBox="0 0 24 24"><g clip-path="url(#clip0_1046_3663)"><path fill="#f0f0f0" d="M12 24c6.627 0 12-5.373 12-12S18.627 0 12 0 0 5.373 0 12s5.373 12 12 12"/><path fill="#6da544" d="M7.826 12v11.253c1.3.482 2.706.747 4.174.747 6.627 0 12-5.373 12-12 0-6.628-16.174 0-16.174 0"/><path fill="#d80027" d="M12 0a12 12 0 0 0-4.174.747V12H24c0-6.627-5.373-12-12-12"/></g><defs><clipPath id="clip0_1046_3663"><path fill="#fff" d="M0 0h24v24H0z"/></clipPath></defs></svg>
