<svg xmlns="http://www.w3.org/2000/svg" width="24" height="24" fill="none" viewBox="0 0 24 24"><g clip-path="url(#clip0_1046_3692)"><path fill="#ffda44" d="M12 24c6.627 0 12-5.373 12-12S18.627 0 12 0 0 5.373 0 12s5.373 12 12 12"/><path fill="#d80027" d="M13.826 23.862a11.94 11.94 0 0 0 5.271-2.185L12.001 12zM10.176.138a11.94 11.94 0 0 0-5.272 2.185L12.001 12zM4.904 21.677a11.94 11.94 0 0 0 5.272 2.186L12 12zM2.324 4.902a11.94 11.94 0 0 0-2.185 5.272L12 11.999zM.139 13.825a11.94 11.94 0 0 0 2.185 5.272L12 12z"/><path fill="#d80027" d="M23.863 10.174a11.94 11.94 0 0 0-2.185-5.271L12 11.999z"/><path fill="#d80027" d="M19.097 2.323A11.94 11.94 0 0 0 13.826.138L12 12zm2.581 16.774a11.94 11.94 0 0 0 2.185-5.272L12.001 12z"/><path fill="#d80027" d="M12.001 16.174a4.174 4.174 0 1 0 0-8.347 4.174 4.174 0 0 0 0 8.347"/><path fill="#ffda44" d="M12 15.13a3.13 3.13 0 1 0 0-6.261 3.13 3.13 0 0 0 0 6.26"/></g><defs><clipPath id="clip0_1046_3692"><path fill="#fff" d="M0 0h24v24H0z"/></clipPath></defs></svg>
