<svg xmlns="http://www.w3.org/2000/svg" width="24" height="24" fill="none" viewBox="0 0 24 24"><g clip-path="url(#clip0_1046_3741)"><path fill="#f0f0f0" d="M12 24c6.627 0 12-5.373 12-12S18.627 0 12 0 0 5.373 0 12s5.373 12 12 12"/><path fill="#d80027" d="M24 12a12 12 0 0 0-6.783-10.81v21.62A12 12 0 0 0 23.999 12"/><path fill="#6da544" d="M0 12a12 12 0 0 0 6.783 10.809V1.19A12 12 0 0 0 0 12m8.87 0a3.13 3.13 0 0 0 6.261 0v-1.044h-6.26z"/><path fill="#ff9811" d="M16.173 9.913h-3.13a1.044 1.044 0 0 0-2.087 0h-3.13c0 .577.501 1.044 1.077 1.044H8.87c0 .576.467 1.043 1.043 1.043 0 .577.467 1.044 1.044 1.044h2.087c.576 0 1.043-.467 1.043-1.044.576 0 1.044-.467 1.044-1.043h-.035c.576 0 1.078-.467 1.078-1.044"/></g><defs><clipPath id="clip0_1046_3741"><path fill="#fff" d="M0 0h24v24H0z"/></clipPath></defs></svg>
