<svg xmlns="http://www.w3.org/2000/svg" width="24" height="24" fill="none" viewBox="0 0 24 24"><g clip-path="url(#clip0_1046_3673)"><path fill="#f0f0f0" d="M12 24c6.627 0 12-5.373 12-12S18.627 0 12 0 0 5.373 0 12s5.373 12 12 12"/><path fill="#ffda44" d="m6.486 16.696-2.971 3.79A11.96 11.96 0 0 0 12 24c4.96 0 9.217-3.01 11.045-7.304z"/><path fill="#496e2d" d="M23.063 7.348C21.246 3.032 16.977.001 12 .001a11.96 11.96 0 0 0-8.485 3.515L6.52 7.348z"/><path fill="#000" d="M2.608 8.826v6.304h20.978c.27-.998.414-2.047.414-3.13 0-1.099-.148-2.163-.425-3.174z"/><path fill="#a2001d" d="M3.515 3.514c-4.687 4.687-4.687 12.285 0 16.97L12 12z"/><path fill="#ffda44" d="m4.857 8.87.777 2.39h2.515l-2.035 1.48.777 2.391-2.034-1.478-2.034 1.478.777-2.391-2.035-1.478H4.08z"/><path fill="#f0f0f0" d="M7.131 12H2.583v2.086h4.548z"/><path fill="#000" d="m7.993 9.607-.738-.738-2.398 2.398L2.46 8.869l-.738.738 2.4 2.396-2.4 2.4.738.727 2.397-2.393 2.398 2.393.738-.728-2.4-2.4z"/></g><defs><clipPath id="clip0_1046_3673"><path fill="#fff" d="M0 0h24v24H0z"/></clipPath></defs></svg>
