<svg xmlns="http://www.w3.org/2000/svg" width="24" height="24" fill="none" viewBox="0 0 24 24"><g clip-path="url(#clip0_1046_3746)"><path fill="#f0f0f0" d="M12 24c6.627 0 12-5.373 12-12S18.627 0 12 0 0 5.373 0 12s5.373 12 12 12"/><path fill="#d80027" d="M.413 15.131a12 12 0 0 0 4.282 6.39v-6.39zm10.543 8.824Q11.472 24 12 24c5.545 0 10.21-3.76 11.587-8.87h-12.63zM23.586 8.87C22.21 3.76 17.544 0 12 0q-.528.001-1.044.046V8.87zM4.695 2.48A12 12 0 0 0 .413 8.87h4.282z"/><path fill="#0052b4" d="M23.898 10.434H9.391V.284a12 12 0 0 0-3.13 1.176v8.975H.1a12 12 0 0 0 0 3.13h6.16v8.976c.97.53 2.021.928 3.13 1.174v-10.15h14.507a12 12 0 0 0 0-3.13"/></g><defs><clipPath id="clip0_1046_3746"><path fill="#fff" d="M0 0h24v24H0z"/></clipPath></defs></svg>
