<svg xmlns="http://www.w3.org/2000/svg" width="24" height="24" fill="none" viewBox="0 0 24 24"><g clip-path="url(#clip0_1046_3684)"><path fill="#000" d="M20.485 20.486c-4.686 4.686-12.284 4.686-16.97 0-4.687-4.687-4.687-12.285 0-16.97C8.2-1.172 15.06-.435 19.747 4.252c4.687 4.686 5.425 11.546.738 16.233"/><path fill="#a2001d" d="M3.515 3.515c4.686-4.687 12.284-4.687 16.97 0 4.687 4.686 4.687 12.284 0 16.97"/><path fill="#f0f0f0" d="m9.172 16.174.194.598h.628l-.508.37.194.597-.508-.37-.51.37.195-.598-.508-.37h.628zm-1.607-5.739.324.996h1.047l-.847.616.323.997-.847-.616-.848.616.324-.997-.848-.616h1.048zm0 7.304.324.996h1.047l-.847.616.323.997-.847-.616-.848.616.324-.997-.848-.616h1.048zm3.065-4.695.323.996h1.048l-.848.616.324.997-.848-.616-.847.616.323-.997-.847-.616h1.048zm-6.128 0 .324.996h1.048l-.848.616.324.997-.848-.616-.847.616.324-.997-.848-.616h1.048z"/><path fill="#ffda44" d="M20.088 8.886a3.1 3.1 0 0 0-1.982-.907l2.241-1.744a4.16 4.16 0 0 0-3.256-1.21 3.1 3.1 0 0 0-.802-1.372l-.885 1.77a1.304 1.304 0 1 0-1.77 1.77l-1.772.887c.395.395.87.662 1.373.802a4.16 4.16 0 0 0 1.21 3.256l1.958-2.518a.78.78 0 0 1 .55-.225c.208 0 .405.081.553.23a.78.78 0 0 1 .229.553.78.78 0 0 1-.23.553l.738.738c.345-.345.535-.803.535-1.291 0-.4-.127-.779-.362-1.092.342.091.666.27.934.538a2.09 2.09 0 0 1 0 2.952l.738.738a3.1 3.1 0 0 0 .917-2.214 3.1 3.1 0 0 0-.917-2.214"/></g><defs><clipPath id="clip0_1046_3684"><path fill="#fff" d="M0 0h24v24H0z"/></clipPath></defs></svg>
