<svg xmlns="http://www.w3.org/2000/svg" width="24" height="24" fill="none" viewBox="0 0 24 24"><g clip-path="url(#clip0_1046_3697)"><path fill="#ffda44" d="M0 12c0 2.078.529 4.033 1.46 5.738L12 18.782l10.54-1.044A11.9 11.9 0 0 0 24 12l-12-1.043z"/><path fill="#338af3" d="M22.54 6.26A12 12 0 0 0 12 0 11.997 11.997 0 0 0 0 12h24c0-2.079-.529-4.034-1.46-5.74"/><path fill="#496e2d" d="M12 24c4.548 0 8.506-2.532 10.54-6.262H1.46A12 12 0 0 0 11.999 24"/><path fill="#ffda44" d="m13.565 7.022 1.466.69-.78 1.42 1.591-.305.202 1.607 1.108-1.182 1.109 1.182.201-1.607 1.592.304-.78-1.42 1.465-.689-1.466-.689.78-1.42-1.59.305-.203-1.607-1.108 1.182-1.108-1.182-.202 1.607-1.591-.304.78 1.42z"/></g><defs><clipPath id="clip0_1046_3697"><path fill="#fff" d="M0 0h24v24H0z"/></clipPath></defs></svg>
