<svg xmlns="http://www.w3.org/2000/svg" width="24" height="24" fill="none" viewBox="0 0 24 24"><g clip-path="url(#clip0_1046_3703)"><path fill="#496e2d" d="M20.486 20.485c4.5-4.5 4.679-11.686.535-16.4L12.001 12l-7.914 9.02c4.714 4.143 11.899 3.966 16.4-.535"/><path fill="#0052b4" d="M3.514 3.514c4.5-4.5 11.686-4.678 16.4-.535L12 12l-9.02 7.914c-4.144-4.714-3.966-11.9.534-16.4"/><path fill="#ffda44" d="M19.914 2.98 2.979 19.915a12 12 0 0 0 1.107 1.106L21.021 4.087a12 12 0 0 0-1.107-1.107"/><path fill="#f0f0f0" d="m5.056 4.174.26.798h.837l-.678.492.26.797-.679-.492-.678.492.26-.797-.679-.492h.838zm4.281 0 .26.797h.838l-.678.492.259.798-.679-.493-.678.493.26-.798-.679-.492h.838zM5.056 8.348l.26.797h.837l-.678.493.26.797-.679-.493-.678.493.26-.797-.679-.493h.838zm4.281 0 .26.797h.838l-.678.493.259.797-.679-.493-.678.493.26-.797-.679-.493h.838zm-2.14-2.086.259.797h.838l-.678.492.259.798-.678-.493-.678.493.259-.798L6.1 7.06h.838z"/></g><defs><clipPath id="clip0_1046_3703"><path fill="#fff" d="M0 0h24v24H0z"/></clipPath></defs></svg>
