<svg xmlns="http://www.w3.org/2000/svg" width="24" height="24" fill="none" viewBox="0 0 24 24"><g clip-path="url(#clip0_1046_3707)"><path fill="#f0f0f0" d="M12 24c6.627 0 12-5.373 12-12S18.627 0 12 0 0 5.373 0 12s5.373 12 12 12"/><path fill="#000" d="M23.063 7.347C21.246 3.03 16.977-.001 12-.001a11.96 11.96 0 0 0-8.485 3.515L6.52 7.347z"/><path fill="#496e2d" d="m6.554 16.608-3.04 3.876A11.96 11.96 0 0 0 12 23.999c4.994 0 9.275-3.051 11.082-7.391z"/><path fill="#a2001d" d="M2.608 8.826v6.304h20.978c.27-.998.414-2.047.414-3.13 0-1.099-.148-2.163-.425-3.174z"/><path fill="#0052b4" d="M3.515 3.515c-4.687 4.686-4.687 12.284 0 16.97L12 12z"/><path fill="#ffda44" d="m3.909 9.016 1.465 2.044 2.396-.76-1.49 2.023 1.465 2.044-2.387-.792-1.49 2.025.015-2.515-2.386-.793 2.397-.761z"/></g><defs><clipPath id="clip0_1046_3707"><path fill="#fff" d="M0 0h24v24H0z"/></clipPath></defs></svg>
