<svg xmlns="http://www.w3.org/2000/svg" width="24" height="24" fill="none" viewBox="0 0 24 24"><g clip-path="url(#clip0_1046_3764)"><path fill="#ffda44" d="M22.81 17.217A11.95 11.95 0 0 0 24 11.999c0-1.87-.428-3.64-1.19-5.217L12 6.26l-10.81.522A11.95 11.95 0 0 0 0 11.999c0 1.87.428 3.64 1.19 5.217l10.81.522z"/><path fill="#000" d="M12 0A12 12 0 0 0 1.19 6.783h21.62A12 12 0 0 0 11.999 0"/><path fill="#0052b4" d="M12 24a12 12 0 0 1-10.81-6.783h21.62A12 12 0 0 1 12 23.999"/><path fill="#a2001d" d="M23.433 8.348H.567A12 12 0 0 0 0 12c0 1.274.2 2.5.567 3.652h22.866A12 12 0 0 0 24 12c0-1.274-.2-2.5-.567-3.652"/><path fill="#ffda44" d="M19.826 11.48H4.174v1.043h15.652zm-2.087-2.089H6.261v1.044h11.478z"/><path fill="#f0f0f0" d="M17.813 12S15.13 15.13 12 15.13 8.87 12 8.87 12s0-3.13 3.13-3.13S17.813 12 17.813 12"/><path fill="#000" d="M12 15.13C8.868 15.13 6.185 12 6.185 12s2.683-3.13 5.813-3.13"/><path fill="#f0f0f0" d="M10.957 10.957H9.913v2.087h1.044z"/><path fill="#000" d="M14.087 10.957h-1.044v2.087h1.043z"/><path fill="#0052b4" d="M4.174 13.045a1.043 1.043 0 1 0 0-2.087 1.043 1.043 0 0 0 0 2.086m15.653 0a1.044 1.044 0 1 0 0-2.087 1.044 1.044 0 0 0 0 2.087"/></g><defs><clipPath id="clip0_1046_3764"><path fill="#fff" d="M0 0h24v24H0z"/></clipPath></defs></svg>
