<svg xmlns="http://www.w3.org/2000/svg" width="24" height="24" fill="none" viewBox="0 0 24 24"><g clip-path="url(#clip0_1046_3716)"><path fill="#496e2d" d="M12 0c-.896 0-1.77.098-2.61.285l-.52 11.714.52 11.715c.84.186 1.714.285 2.61.285 6.627 0 12-5.372 12-12 0-6.627-5.373-12-12-12M3.13 3.917A11.96 11.96 0 0 0 0 12c0 3.113 1.186 5.95 3.13 8.082L3.652 12z"/><path fill="#f0f0f0" d="M17.551 9.052a3.65 3.65 0 0 0-1.496-4.327q.385.048.765.184a3.652 3.652 0 1 1-3.174 6.531 3.65 3.65 0 0 0 3.905-2.388m-3.274-4.778-.513.663-.79-.283.473.693-.513.663.804-.235.472.693.025-.838.805-.235-.789-.283z"/><path fill="#f0f0f0" d="m15.662 6.435-.513.663-.789-.283.472.693-.513.663.805-.235.472.693.025-.838.805-.235-.789-.283zM11.833 5.06l-.513.663-.789-.283.472.693-.513.663.805-.235.472.693.025-.838.805-.235-.79-.283zm-.055 2.475-.513.662-.79-.283.473.693-.513.663.804-.235.472.693.025-.838.805-.235-.789-.283zm2.354.845-.513.663-.789-.283.472.693-.513.662.805-.234.472.692.025-.838.805-.234-.79-.283z"/><path fill="#d80027" d="M3.13 3.917v16.166a12 12 0 0 0 6.26 3.632V.285a12 12 0 0 0-6.26 3.632"/><path fill="#f0f0f0" d="m5.52 6.318-1.048-.781V4.433l1.048-.781h1.482l1.048.78v1.105l-1.048.78z"/><path fill="#ff9811" d="M6.261 3.652H5.52l-1.048.78v.54h1.79zM6.26 6.317h.742l1.048-.781v-.563H6.26z"/><path fill="#f0f0f0" d="m5.52 20.349-1.048-.781v-1.105l1.048-.78h1.482l1.048.78v1.105l-1.048.78z"/><path fill="#ff9811" d="M6.261 17.683H5.52l-1.048.78v.54h1.79zM6.26 20.35h.742l1.048-.782v-.563H6.26z"/><path fill="#496e2d" d="m5.52 13.332-1.048-.78v-1.105l1.048-.78h1.482l1.048.78v1.105l-1.048.78zm2.567 1.719H7.63v-.456h-.802l-.567-.567-.568.567h-.802v.456h-.456v.913h.456v.457h.802l.568.567.567-.567h.802v-.457h.457zm0-7.015H7.63v-.457h-.802l-.567-.567-.568.567h-.802v.457h-.456v.913h.456v.457h.802l.568.567.567-.567h.802v-.457h.457z"/><path fill="#d80027" d="M6.783 11.48H5.739v1.043h1.044zm-.522-2.465a.522.522 0 1 0 0-1.044.522.522 0 0 0 0 1.044m0 7.015a.522.522 0 1 0 0-1.043.522.522 0 0 0 0 1.044"/></g><defs><clipPath id="clip0_1046_3716"><path fill="#fff" d="M0 0h24v24H0z"/></clipPath></defs></svg>
