<svg xmlns="http://www.w3.org/2000/svg" width="24" height="24" fill="none" viewBox="0 0 24 24"><g clip-path="url(#clip0_1046_3714)"><path fill="#d80027" d="M12 24c6.627 0 12-5.373 12-12S18.627 0 12 0 0 5.373 0 12s5.373 12 12 12"/><path fill="#f0f0f0" d="M12 17.739A5.74 5.74 0 1 0 12 6.26a5.74 5.74 0 0 0 0 11.479"/><path fill="#d80027" d="m12.707 9.805.984 1.357 1.595-.517L14.3 12l.984 1.357-1.594-.519-.986 1.356.001-1.677L11.111 12l1.595-.518z"/><path fill="#d80027" d="M13.304 15.39a3.391 3.391 0 1 1 1.614-6.374 4.174 4.174 0 1 0 0 5.967 3.4 3.4 0 0 1-1.614.408"/></g><defs><clipPath id="clip0_1046_3714"><path fill="#fff" d="M0 0h24v24H0z"/></clipPath></defs></svg>
