<svg xmlns="http://www.w3.org/2000/svg" width="24" height="24" fill="none" viewBox="0 0 24 24"><g clip-path="url(#clip0_1046_3775)"><path fill="#f0f0f0" d="M6.498 1.332a12 12 0 0 0-2.983 2.182c-.9.9-1.628 1.909-2.182 2.983l7.716 8.454 8.454 7.716a12 12 0 0 0 2.983-2.182c.9-.9 1.627-1.909 2.182-2.983l-7.716-8.454z"/><path fill="#000" d="M20.486 20.486q.755-.756 1.347-1.604L5.12 2.167A12.1 12.1 0 0 0 2.167 5.12l16.715 16.715q.846-.594 1.604-1.348"/><path fill="#d80027" d="M3.514 20.487c3.786 3.786 9.472 4.512 13.988 2.181L1.332 6.498C-.997 11.016-.27 16.702 3.515 20.487m16.97-16.972C16.699-.271 11.013-.998 6.497 1.333l16.17 16.17c2.33-4.517 1.604-10.202-2.182-13.988"/></g><defs><clipPath id="clip0_1046_3775"><path fill="#fff" d="M0 0h24v24H0z"/></clipPath></defs></svg>
