<svg xmlns="http://www.w3.org/2000/svg" width="24" height="24" fill="none" viewBox="0 0 24 24"><g clip-path="url(#clip0_1046_3718)"><path fill="#338af3" d="M24 12c0 6.627-5.373 12-12 12S0 18.627 0 12C0 12.003 12 .001 12 0c6.627 0 12 5.373 12 12"/><path fill="#0052b4" d="M5.74 12.001h4.047L6.26 7.827l-.522 1.565zM12 9.787 7.826 5.739H12z"/><path fill="#f0f0f0" d="M11.968 12H12v-.033z"/><path fill="#f0f0f0" d="M12 6.261V.001h-.002C5.372 0 0 5.373 0 12h6.26V8.474L9.787 12h2.182l.032-.032V9.787L8.474 6.26z"/><path fill="#d80027" d="M6.071 1.565a12.06 12.06 0 0 0-4.506 4.506v5.93h3.13V4.695H12v-3.13z"/><path fill="#d80027" d="M12 10.524 7.738 6.261H6.262L12 12z"/><path fill="#ffda44" d="m13.097 19.825.26.797h.837l-.678.493.26.797-.679-.492-.678.492.26-.797-.679-.493h.838zm6.676-5.215.259.797h.838l-.678.492.26.797-.679-.492-.678.492.259-.797-.678-.492h.838zm1.672-7.827.259.797h.838l-.678.492.259.798-.678-.493-.678.493.259-.798-.678-.492h.838zm.415 5.739.259.797h.838l-.678.492.259.797-.678-.492-.678.492.259-.797-.678-.492h.838zm-7.561 5.429.747.38.593-.592-.131.828.746.38-.828.132-.13.828-.381-.747-.828.13.593-.592zm0-3.129.747.38.593-.593-.131.828.746.38-.828.132-.13.828-.381-.747-.828.131.593-.593zm2.609 2.005.747.38.593-.592-.131.828.747.38-.828.132-.131.827-.38-.747-.829.132.593-.593zm0-6.702.747.38.593-.592-.131.828.747.38-.828.131-.131.828-.38-.747-.829.131.593-.592zm2.529-.08.747.38.592-.593-.13.828.746.38-.828.132-.131.828-.38-.747-.828.131.592-.593z"/></g><defs><clipPath id="clip0_1046_3718"><path fill="#fff" d="M0 0h24v24H0z"/></clipPath></defs></svg>
