<svg xmlns="http://www.w3.org/2000/svg" width="24" height="24" fill="none" viewBox="0 0 24 24"><g clip-path="url(#clip0_1046_3776)"><path fill="#000" d="M24 12q0-.796-.102-1.565H10.435l-6.92-6.92c-4.687 4.686-4.687 12.284 0 16.97l6.92-6.92h13.463Q24 12.798 24 12"/><path fill="#f0f0f0" d="m23.997 12.273-.002.07zm-.012.327q0 .034-.004.069zm-.017.263-.007.101zm-.039-2.171.013.12zm.051.638.004.069q0-.034-.004-.07m.015.328.002.07zm-.035-.621q.006.05.008.1z"/><path fill="#d80027" d="m23.898 10.434.015.124C23.202 4.61 18.14 0 12 0a11.96 11.96 0 0 0-8.485 3.515l6.92 6.92z"/><path fill="#6da544" d="M23.898 13.565H10.435l-6.92 6.92A11.96 11.96 0 0 0 12 24c6.14 0 11.201-4.61 11.914-10.558z"/><path fill="#f0f0f0" d="m23.942 13.188-.013.12z"/><path fill="#ffda44" d="M23.99 11.473H9.994l-7.19-7.187a6 6 0 0 0-.64.83l6.876 6.879-6.88 6.88c.135.243.432.602.64.835l7.194-7.193H23.99a12 12 0 0 0-.002-1.044"/><path fill="#ffda44" d="M2.915 14.557v-1.005a1.82 1.82 0 0 0 1.82-1.819c0-.71-.578-1.287-1.288-1.287a.88.88 0 0 0-.877.877c0 .31.252.56.561.56a.317.317 0 0 0 .317-.316h1.005c0 .729-.593 1.322-1.322 1.322a1.567 1.567 0 0 1-1.566-1.566c0-1.037.845-1.882 1.882-1.882a2.295 2.295 0 0 1 2.292 2.292 2.827 2.827 0 0 1-2.824 2.824"/></g><defs><clipPath id="clip0_1046_3776"><path fill="#fff" d="M0 0h24v24H0z"/></clipPath></defs></svg>
