<svg xmlns="http://www.w3.org/2000/svg" width="24" height="24" fill="none" viewBox="0 0 24 24"><g clip-path="url(#clip0_1046_3753)"><path fill="#d80027" d="M24 12c0 6.627-5.373 12-12 12S0 18.627 0 12L12 0c6.627 0 12 5.373 12 12"/><path fill="#0052b4" d="M12 12V0C5.373 0 0 5.373 0 12z"/><path fill="#f0f0f0" d="m9.611 7.826.194.598h.629l-.509.37.195.597-.509-.37-.509.37.195-.598-.509-.369h.629zM6.454 3.131l.324.997h1.048l-.848.615.324.997-.848-.616-.847.616.324-.997-.848-.615h1.048zm3.131 1.044.324.997h1.048l-.848.615.324.997-.848-.616-.847.616.324-.997-.848-.615h1.048zM7.11 8.349l.325.997h1.047l-.847.615.323.997-.847-.616-.848.616.324-.997-.848-.615h1.048zM4.368 5.74l.323.996H5.74l-.848.616.324.997-.847-.616-.848.616.324-.997-.848-.616h1.048z"/></g><defs><clipPath id="clip0_1046_3753"><path fill="#fff" d="M0 0h24v24H0z"/></clipPath></defs></svg>
